<?xml version="1.0" encoding="utf-8"?>
<!-- Generator: Adobe Illustrator 23.0.6, SVG Export Plug-In . SVG Version: 6.00 Build 0)  -->
<svg version="1.1" id="圖層_1" xmlns="http://www.w3.org/2000/svg" xmlns:xlink="http://www.w3.org/1999/xlink" x="0px" y="0px"
	 viewBox="0 0 156 39" style="enable-background:new 0 0 156 39;" xml:space="preserve">
<style type="text/css">
	.st0{fill:#FFFFFF;}
</style>
<path class="st0" d="M22.9-0.1c-0.8,0.8-1.6,1.7-2.3,2.6c-0.8,0.9-1.5,1.8-2.2,2.7c-1.5,1.8-2.9,3.6-4.2,5.5
	c-1.3,1.9-2.5,3.9-3.4,5.9c-0.5,1-0.9,2.1-1.2,3.1C9.2,20.8,9,21.9,9,23c0,1,0.2,2,0.7,2.9c0.1,0.2,0.3,0.4,0.4,0.6
	c0.1,0.1,0.2,0.2,0.2,0.3c0,0,0.1,0.1,0.1,0.1l0.1,0.1l0.3,0.3c0.1,0.1,0.2,0.2,0.3,0.3c0.1,0.1,0.2,0.2,0.3,0.2
	c0.1,0.1,0.2,0.2,0.3,0.2c1.7,1.3,3.8,2,5.9,2c2.1,0.1,4.3-0.4,6.4-1.2c2.1-0.8,4.1-1.9,5.9-3.1c1.9-1.3,3.6-2.7,5.2-4.3
	c0.8-0.8,1.5-1.6,2.2-2.5c0.3-0.4,0.6-0.9,0.9-1.3c0.2-0.4,0.4-0.9,0.5-1.3c0-0.2,0.1-0.4,0-0.5c0-0.1,0-0.3-0.1-0.4
	c-0.1-0.1-0.1-0.2-0.3-0.3l-0.2-0.1l-0.1-0.1c-0.1-0.1-0.2-0.1-0.3-0.2c-0.7-0.5-1.6-0.8-2.6-0.8c-0.5,0-1,0.1-1.5,0.2
	c-0.5,0.1-1,0.3-1.5,0.5c-1,0.4-1.9,0.9-2.8,1.5c-0.9,0.6-1.8,1.3-2.6,2c-0.2,0.2-0.4,0.4-0.6,0.6c-0.2,0.2-0.4,0.4-0.6,0.6
	l-0.3,0.3l-0.1,0.1l-0.1,0.1l-0.2,0.2l-0.6,0.6L24.1,21l-0.6,0.6c-0.4,0.4-0.8,0.8-1.1,1.3c-0.4,0.4-0.8,0.9-1.1,1.3l-1.1,1.3
	c-1.5,1.8-2.9,3.6-4.2,5.5c-0.7,0.9-1.3,1.9-2,2.8c-0.6,0.9-1.3,1.9-1.9,2.9l0,0L10.6,39l-0.5-2.6L6.6,17.3l0,0l0.7,0.2L3,21.2
	L2.8,21l3.9-4.1l0.5-0.5l0.2,0.8l0,0L12.2,36l-1.9-0.3v0c0.6-1,1.2-2,1.8-3c0.6-1,1.3-2,2-2.9c1.3-1.9,2.7-3.8,4.2-5.7l1.1-1.4
	c0.4-0.5,0.8-0.9,1.1-1.3c0.4-0.4,0.8-0.9,1.2-1.3l0.6-0.7l0.6-0.6l0.6-0.6l0.2-0.2l0.1-0.1l0.1-0.1l0.3-0.3
	c0.2-0.2,0.4-0.4,0.6-0.6c0.2-0.2,0.4-0.4,0.7-0.6c0.9-0.8,1.8-1.6,2.9-2.3c1-0.7,2.1-1.3,3.3-1.8c0.6-0.2,1.2-0.4,1.9-0.6
	c0.6-0.1,1.3-0.2,2-0.2c1.4,0,2.8,0.4,4,1.2c0.1,0.1,0.3,0.2,0.4,0.3l0.2,0.2l0.2,0.2c0.3,0.3,0.6,0.6,0.8,1
	c0.2,0.4,0.3,0.9,0.4,1.3c0,0.4,0,0.8-0.1,1.2c-0.2,0.8-0.5,1.4-0.8,1.9c-0.3,0.6-0.7,1.1-1.1,1.6c-0.8,1-1.6,1.9-2.4,2.7
	c-0.9,0.9-1.8,1.7-2.7,2.4c-0.9,0.8-1.9,1.5-2.9,2.1c-2,1.3-4.1,2.5-6.4,3.3c-2.3,0.8-4.7,1.4-7.3,1.2c-1.3-0.1-2.5-0.3-3.7-0.7
	c-1.2-0.4-2.3-1.1-3.3-1.8c-0.1-0.1-0.2-0.2-0.4-0.3c-0.1-0.1-0.2-0.2-0.4-0.3c-0.1-0.1-0.2-0.2-0.3-0.3l-0.3-0.3l-0.2-0.2
	C9.1,28.1,9.1,28.1,9,28c-0.1-0.1-0.2-0.3-0.3-0.4c-0.2-0.3-0.4-0.6-0.5-0.8c-0.3-0.6-0.6-1.2-0.7-1.9c-0.1-0.6-0.2-1.3-0.2-1.9
	c0-1.3,0.3-2.5,0.7-3.7c0.4-1.2,0.9-2.3,1.4-3.3c1.1-2.1,2.4-4.1,3.8-6c1.4-1.9,2.9-3.7,4.5-5.4c1.6-1.7,3.3-3.4,5-4.9L22.9-0.1z"/>
<g>
	<g>
		<path class="st0" d="M49.7,29.8h1.5l1.1,3.4l1-3.4h1.5l-1.8,4.7h-1.6L49.7,29.8z"/>
		<path class="st0" d="M57.9,33.8h-1.7L56,34.5h-1.5l1.8-4.7h1.6l1.8,4.7h-1.5L57.9,33.8z M57.6,32.7L57,31l-0.5,1.7H57.6z"/>
		<path class="st0" d="M59.3,29.8h4.4V31h-1.5v3.6h-1.5V31h-1.5V29.8z"/>
		<path class="st0" d="M64.1,29.8h4.4V31H67v3.6h-1.5V31h-1.5V29.8z"/>
		<path class="st0" d="M69.1,29.8H73v1h-2.4v0.7h2.3v1h-2.3v0.9h2.5v1.1h-4V29.8z"/>
		<path class="st0" d="M73.9,29.8h1.4l1.8,2.6v-2.6h1.4v4.7h-1.4l-1.8-2.6v2.6h-1.4V29.8z"/>
		<path class="st0" d="M81.3,33l1.4-0.1c0,0.2,0.1,0.4,0.2,0.5c0.1,0.2,0.4,0.3,0.6,0.3c0.2,0,0.4,0,0.5-0.1
			c0.1-0.1,0.2-0.2,0.2-0.3c0-0.1-0.1-0.2-0.2-0.3s-0.4-0.2-0.7-0.3c-0.6-0.1-1.1-0.3-1.4-0.6c-0.3-0.2-0.4-0.5-0.4-0.9
			c0-0.2,0.1-0.5,0.2-0.7c0.1-0.2,0.4-0.4,0.6-0.5c0.3-0.1,0.7-0.2,1.2-0.2c0.6,0,1.1,0.1,1.4,0.3c0.3,0.2,0.5,0.6,0.6,1.1l-1.4,0.1
			c0-0.2-0.1-0.4-0.2-0.5c-0.1-0.1-0.3-0.1-0.5-0.1c-0.2,0-0.3,0-0.4,0.1c-0.1,0.1-0.1,0.2-0.1,0.3c0,0.1,0,0.1,0.1,0.2
			c0.1,0.1,0.2,0.1,0.5,0.2c0.6,0.1,1.1,0.3,1.4,0.4c0.3,0.1,0.5,0.3,0.6,0.5c0.1,0.2,0.2,0.4,0.2,0.7c0,0.3-0.1,0.6-0.3,0.8
			c-0.2,0.3-0.4,0.4-0.7,0.6c-0.3,0.1-0.7,0.2-1.1,0.2c-0.8,0-1.4-0.2-1.7-0.5C81.6,33.8,81.4,33.5,81.3,33z"/>
		<path class="st0" d="M86.2,32.2c0-0.8,0.2-1.4,0.6-1.8c0.4-0.4,1-0.6,1.8-0.6c0.8,0,1.4,0.2,1.8,0.6c0.4,0.4,0.6,1,0.6,1.8
			c0,0.6-0.1,1-0.3,1.4c-0.2,0.4-0.5,0.6-0.8,0.8c-0.4,0.2-0.8,0.3-1.3,0.3c-0.5,0-1-0.1-1.3-0.3c-0.3-0.2-0.6-0.4-0.8-0.8
			C86.3,33.2,86.2,32.7,86.2,32.2z M87.6,32.2c0,0.5,0.1,0.8,0.3,1c0.2,0.2,0.4,0.3,0.7,0.3c0.3,0,0.6-0.1,0.7-0.3
			c0.2-0.2,0.3-0.6,0.3-1.1c0-0.4-0.1-0.8-0.3-1c-0.2-0.2-0.4-0.3-0.7-0.3c-0.3,0-0.5,0.1-0.7,0.3S87.6,31.7,87.6,32.2z"/>
		<path class="st0" d="M91.8,29.8h3.6v1h-2.1v0.8h1.8v1h-1.8v1.9h-1.5V29.8z"/>
		<path class="st0" d="M95.9,29.8h4.4V31h-1.5v3.6h-1.5V31h-1.5V29.8z"/>
		<path class="st0" d="M106.3,32.6l1.3,0.4c-0.1,0.4-0.2,0.7-0.4,0.9c-0.2,0.2-0.4,0.4-0.7,0.5c-0.3,0.1-0.6,0.2-1,0.2
			c-0.5,0-0.9-0.1-1.3-0.2s-0.6-0.4-0.8-0.8c-0.2-0.4-0.4-0.9-0.4-1.4c0-0.8,0.2-1.4,0.6-1.8c0.4-0.4,1-0.6,1.8-0.6
			c0.6,0,1.1,0.1,1.4,0.4c0.3,0.2,0.6,0.6,0.8,1.1l-1.3,0.3c0-0.1-0.1-0.2-0.1-0.3c-0.1-0.1-0.2-0.2-0.3-0.3
			c-0.1-0.1-0.2-0.1-0.4-0.1c-0.3,0-0.6,0.1-0.8,0.4c-0.1,0.2-0.2,0.5-0.2,0.9c0,0.5,0.1,0.9,0.2,1.1c0.2,0.2,0.4,0.3,0.7,0.3
			c0.3,0,0.5-0.1,0.6-0.2C106.2,33.1,106.3,32.9,106.3,32.6z"/>
		<path class="st0" d="M108.1,32.2c0-0.8,0.2-1.4,0.6-1.8c0.4-0.4,1-0.6,1.8-0.6c0.8,0,1.4,0.2,1.8,0.6c0.4,0.4,0.6,1,0.6,1.8
			c0,0.6-0.1,1-0.3,1.4c-0.2,0.4-0.5,0.6-0.8,0.8c-0.4,0.2-0.8,0.3-1.3,0.3c-0.5,0-1-0.1-1.3-0.3c-0.3-0.2-0.6-0.4-0.8-0.8
			C108.2,33.2,108.1,32.7,108.1,32.2z M109.6,32.2c0,0.5,0.1,0.8,0.3,1c0.2,0.2,0.4,0.3,0.7,0.3c0.3,0,0.6-0.1,0.7-0.3
			c0.2-0.2,0.3-0.6,0.3-1.1c0-0.4-0.1-0.8-0.3-1c-0.2-0.2-0.4-0.3-0.7-0.3c-0.3,0-0.5,0.1-0.7,0.3S109.6,31.7,109.6,32.2z"/>
		<path class="st0" d="M113.8,34.5v-4.7h2.4c0.5,0,0.8,0,1,0.1c0.2,0.1,0.4,0.2,0.6,0.4c0.1,0.2,0.2,0.5,0.2,0.8
			c0,0.3-0.1,0.5-0.2,0.7c-0.1,0.2-0.3,0.3-0.5,0.5c-0.1,0.1-0.3,0.1-0.5,0.2c0.2,0.1,0.3,0.1,0.4,0.2c0.1,0,0.1,0.1,0.2,0.2
			c0.1,0.1,0.2,0.2,0.2,0.3l0.7,1.4h-1.6l-0.8-1.4c-0.1-0.2-0.2-0.3-0.3-0.4c-0.1-0.1-0.2-0.1-0.4-0.1h-0.1v1.9H113.8z M115.3,31.7
			h0.6c0.1,0,0.2,0,0.4-0.1c0.1,0,0.2-0.1,0.2-0.1c0.1-0.1,0.1-0.2,0.1-0.3c0-0.2,0-0.3-0.1-0.4c-0.1-0.1-0.3-0.1-0.5-0.1h-0.6V31.7
			z"/>
		<path class="st0" d="M118.9,29.8h2.4c0.5,0,0.9,0.1,1.2,0.4c0.3,0.2,0.4,0.6,0.4,1.1c0,0.5-0.1,0.8-0.4,1.1
			c-0.3,0.3-0.7,0.4-1.3,0.4h-0.8v1.8h-1.5V29.8z M120.4,31.8h0.4c0.3,0,0.5,0,0.6-0.1c0.1-0.1,0.2-0.2,0.2-0.4c0-0.1,0-0.3-0.1-0.4
			c-0.1-0.1-0.3-0.2-0.6-0.2h-0.4V31.8z"/>
		<path class="st0" d="M123.5,32.2c0-0.8,0.2-1.4,0.6-1.8c0.4-0.4,1-0.6,1.8-0.6c0.8,0,1.4,0.2,1.8,0.6c0.4,0.4,0.6,1,0.6,1.8
			c0,0.6-0.1,1-0.3,1.4c-0.2,0.4-0.5,0.6-0.8,0.8c-0.4,0.2-0.8,0.3-1.3,0.3c-0.5,0-1-0.1-1.3-0.3c-0.3-0.2-0.6-0.4-0.8-0.8
			C123.6,33.2,123.5,32.7,123.5,32.2z M125,32.2c0,0.5,0.1,0.8,0.3,1c0.2,0.2,0.4,0.3,0.7,0.3c0.3,0,0.6-0.1,0.7-0.3
			c0.2-0.2,0.3-0.6,0.3-1.1c0-0.4-0.1-0.8-0.3-1c-0.2-0.2-0.4-0.3-0.7-0.3c-0.3,0-0.5,0.1-0.7,0.3C125.1,31.4,125,31.7,125,32.2z"/>
		<path class="st0" d="M129.2,34.5v-4.7h2.4c0.5,0,0.8,0,1,0.1c0.2,0.1,0.4,0.2,0.6,0.4c0.1,0.2,0.2,0.5,0.2,0.8
			c0,0.3-0.1,0.5-0.2,0.7c-0.1,0.2-0.3,0.3-0.5,0.5c-0.1,0.1-0.3,0.1-0.5,0.2c0.2,0.1,0.3,0.1,0.4,0.2c0.1,0,0.1,0.1,0.2,0.2
			c0.1,0.1,0.2,0.2,0.2,0.3l0.7,1.4h-1.6l-0.8-1.4c-0.1-0.2-0.2-0.3-0.3-0.4c-0.1-0.1-0.2-0.1-0.4-0.1h-0.1v1.9H129.2z M130.7,31.7
			h0.6c0.1,0,0.2,0,0.4-0.1c0.1,0,0.2-0.1,0.2-0.1c0.1-0.1,0.1-0.2,0.1-0.3c0-0.2,0-0.3-0.1-0.4c-0.1-0.1-0.3-0.1-0.5-0.1h-0.6V31.7
			z"/>
		<path class="st0" d="M137.2,33.8h-1.7l-0.2,0.8h-1.5l1.8-4.7h1.6l1.8,4.7h-1.5L137.2,33.8z M136.9,32.7l-0.5-1.7l-0.5,1.7H136.9z"
			/>
		<path class="st0" d="M138.7,29.8h4.4V31h-1.5v3.6h-1.5V31h-1.5V29.8z"/>
		<path class="st0" d="M143.8,29.8h1.5v4.7h-1.5V29.8z"/>
		<path class="st0" d="M146.1,32.2c0-0.8,0.2-1.4,0.6-1.8c0.4-0.4,1-0.6,1.8-0.6c0.8,0,1.4,0.2,1.8,0.6c0.4,0.4,0.6,1,0.6,1.8
			c0,0.6-0.1,1-0.3,1.4c-0.2,0.4-0.5,0.6-0.8,0.8c-0.4,0.2-0.8,0.3-1.3,0.3c-0.5,0-1-0.1-1.3-0.3c-0.3-0.2-0.6-0.4-0.8-0.8
			C146.2,33.2,146.1,32.7,146.1,32.2z M147.6,32.2c0,0.5,0.1,0.8,0.3,1c0.2,0.2,0.4,0.3,0.7,0.3c0.3,0,0.6-0.1,0.7-0.3
			c0.2-0.2,0.3-0.6,0.3-1.1c0-0.4-0.1-0.8-0.3-1c-0.2-0.2-0.4-0.3-0.7-0.3c-0.3,0-0.5,0.1-0.7,0.3S147.6,31.7,147.6,32.2z"/>
		<path class="st0" d="M151.8,29.8h1.4l1.8,2.6v-2.6h1.4v4.7h-1.4l-1.8-2.6v2.6h-1.4V29.8z"/>
	</g>
	<g>
		<polygon class="st0" points="97.6,8.9 102.2,8.9 102.2,24.9 107,24.9 107,8.9 112.6,8.9 112.6,5.5 97.6,5.5 		"/>
		<polygon class="st0" points="115.6,5.6 115.6,8.3 115.6,13.2 115.6,16.2 115.6,22 115.6,24.9 115.6,24.9 120.3,24.9 120.3,24.9 
			130.1,24.9 130.1,22 120.3,22 120.3,16.2 130.1,16.2 130.1,13.2 120.3,13.2 120.3,8.3 130.1,8.3 130.1,5.5 115.6,5.5 		"/>
		<path class="st0" d="M72.1,4.1c-1.3,0-2.5,0.3-3.4,0.8c-1.4,0.8-2.3,1.8-3.1,2.8c-0.7,0.9-6.1,8.1-8.4,11.3
			c-0.9,1.2-2.4,1.2-2.5-1L53.9,4.9H49c0,0,0.8,11.7,1,14.4c0.3,3.5,1.6,5.8,4.9,5.8c2.7,0,4.2-1.6,5.8-3.6c0.3-0.4,1.7-2.4,3.6-5
			h8.9V25h4.7c0,0,0-10.3,0-14.8C77.9,7.1,76.4,4.1,72.1,4.1z M65.9,14c0.9-1.3,1.9-2.7,2.8-4c0.9-1.3,1.7-2.6,3-2.6
			c0.8,0,1.4,0.6,1.4,2.3c0,0.6,0,1.8,0,3.4V14H65.9z"/>
		<polygon class="st0" points="151.2,5.6 151.2,19.2 139.1,5.6 134.8,5.6 134.8,24.9 139.1,24.9 139.1,11.3 151,24.8 151.2,24.7 
			151.2,24.9 155.2,24.9 155.2,5.6 		"/>
		<polygon class="st0" points="80,8.9 85.2,8.9 85.2,24.9 90,24.9 90,8.9 94.7,8.9 94.7,5.5 80,5.5 		"/>
	</g>
</g>
</svg>
